<svg width="133" height="43" viewBox="0 0 133 43" fill="none" xmlns="http://www.w3.org/2000/svg">
<path d="M10.724 20.28C4.536 20.28 0.7 16.472 0.7 10.62C0.7 4.768 4.536 0.96 10.724 0.96C16.548 0.96 20.3 3.872 20.3 8.632V9.052H15.624V8.632C15.624 6.168 14.224 4.992 10.808 4.992C6.692 4.992 5.152 6.448 5.152 10.62C5.152 14.792 6.692 16.248 10.808 16.248C14.224 16.248 15.624 15.072 15.624 12.608V12.188H20.3V12.608C20.3 17.368 16.576 20.28 10.724 20.28ZM29.596 20.28C24.808 20.28 21.588 17.424 21.588 13C21.588 8.52 24.808 5.692 29.596 5.692C34.384 5.692 37.604 8.52 37.604 13C37.604 17.424 34.384 20.28 29.596 20.28ZM29.596 16.556C32.424 16.556 33.432 15.464 33.432 13C33.432 10.536 32.424 9.388 29.596 9.388C26.74 9.388 25.76 10.536 25.76 13C25.76 15.464 26.74 16.556 29.596 16.556ZM43.5192 20H39.3192V5.972H43.2112V10.228H43.4352C43.7712 7.876 45.1712 5.692 48.6992 5.692C51.9472 5.692 53.5992 7.68 53.9072 10.284H54.1592C54.4952 7.904 55.9232 5.692 59.5352 5.692C63.1472 5.692 64.9112 8.072 64.9112 11.264V20H60.7112V12.664C60.7112 10.34 59.8992 9.472 57.4912 9.472C54.9432 9.472 54.2152 10.48 54.2152 12.916V20H50.0152V12.664C50.0152 10.34 49.2032 9.472 46.7952 9.472C44.2472 9.472 43.5192 10.48 43.5192 12.916V20ZM71.2458 24.76H67.0458V5.972H70.9378V9.808H71.2178C71.7218 7.12 73.5138 5.692 76.8178 5.692C81.1298 5.692 83.5378 8.548 83.5378 13C83.5378 17.452 81.1858 20.28 76.9578 20.28C73.7098 20.28 71.9178 18.684 71.4418 16.22H71.2458V24.76ZM71.2458 13.196C71.2458 15.604 72.7018 16.444 75.3338 16.444C78.0218 16.444 79.2818 15.548 79.2818 13C79.2818 10.424 78.0218 9.556 75.3618 9.556C72.6458 9.556 71.2458 10.48 71.2458 12.972V13.196ZM91.0801 20.28C87.1321 20.28 85.2561 17.844 85.2561 14.708V5.972H89.4561V13.308C89.4561 15.576 90.4081 16.528 93.0681 16.528C95.8121 16.528 96.7921 15.464 96.7921 13.084V5.972H100.992V20H97.0721V15.716H96.8481C96.4841 18.068 94.7761 20.28 91.0801 20.28ZM110.224 20.28C105.492 20.28 102.888 18.432 102.888 15.184V15.1H107.088V15.352C107.088 16.612 107.872 16.948 110.252 16.948C112.492 16.948 113.024 16.584 113.024 15.744C113.024 14.96 112.604 14.736 110.952 14.512L107.004 14.036C104.204 13.728 102.636 12.468 102.636 10.116C102.636 7.652 104.736 5.692 109.552 5.692C114.144 5.692 116.748 7.428 116.748 10.844V10.928H112.548V10.76C112.548 9.612 111.988 9.024 109.412 9.024C107.312 9.024 106.78 9.388 106.78 10.284C106.78 11.012 107.172 11.32 109.02 11.544L112.016 11.908C115.768 12.328 117.168 13.588 117.168 15.912C117.168 18.544 114.564 20.28 110.224 20.28ZM125.946 20.28C121.214 20.28 118.61 18.432 118.61 15.184V15.1H122.81V15.352C122.81 16.612 123.594 16.948 125.974 16.948C128.214 16.948 128.746 16.584 128.746 15.744C128.746 14.96 128.326 14.736 126.674 14.512L122.726 14.036C119.926 13.728 118.358 12.468 118.358 10.116C118.358 7.652 120.458 5.692 125.274 5.692C129.866 5.692 132.47 7.428 132.47 10.844V10.928H128.27V10.76C128.27 9.612 127.71 9.024 125.134 9.024C123.034 9.024 122.502 9.388 122.502 10.284C122.502 11.012 122.894 11.32 124.742 11.544L127.738 11.908C131.49 12.328 132.89 13.588 132.89 15.912C132.89 18.544 130.286 20.28 125.946 20.28ZM11.004 42H7.532C4.256 42 2.268 40.46 2.268 36.932V31.444H0.056V27.972H2.268V25.256H6.468V27.972H11.004V31.444H6.468V36.456C6.468 37.856 7 38.22 8.484 38.22H11.004V42ZM16.889 42.28C13.865 42.28 12.045 40.88 12.045 38.528C12.045 36.456 13.585 35.168 16.581 34.86L22.601 34.244V33.712C22.601 31.892 21.789 31.388 19.549 31.388C17.421 31.388 16.553 31.948 16.553 33.544V33.656H12.325V33.572C12.325 30.1 15.237 27.692 19.857 27.692C24.533 27.692 26.745 30.1 26.745 33.768V42H22.825V38.78H22.601C21.957 40.964 19.997 42.28 16.889 42.28ZM16.273 38.248C16.273 39.004 16.861 39.312 18.093 39.312C20.949 39.312 22.489 38.64 22.601 36.652L17.729 37.212C16.721 37.296 16.273 37.576 16.273 38.248ZM32.7099 42H27.6419L33.2419 35.14V34.916L27.6419 27.972H32.7659L36.4899 32.704H36.7139L40.3259 27.972H45.3939L39.7939 34.832V35.084L45.3939 42H40.2699L36.5459 37.296H36.3219L32.7099 42ZM50.6013 26.544H46.4013V23.24H50.6013V26.544ZM50.6013 42H46.4013V27.972H50.6013V42Z" fill="#424242"/>
<path d="M62.244 42H56.84V37.1H62.244V42Z" fill="#FFC409"/>
</svg>
